<?xml version="1.0" encoding="utf-8"?>
<!-- Generator: Adobe Illustrator 23.0.1, SVG Export Plug-In . SVG Version: 6.00 Build 0)  -->
<svg version="1.1" id="Слой_1" xmlns="http://www.w3.org/2000/svg" xmlns:xlink="http://www.w3.org/1999/xlink" x="0px" y="0px"
	 viewBox="0 0 56.69 56.69" style="enable-background:new 0 0 56.69 56.69;" xml:space="preserve">
<g>
	<g id="I2npLI_1_">
		<g>
			<path d="M28.38,30.39c-0.13,0-0.25,0-0.38,0c-0.06-0.02-0.12-0.02-0.18-0.03c-0.61-0.1-1.12-0.39-1.5-0.88
				c-0.37-0.47-0.53-1-0.5-1.59c0-0.06,0.01-0.09-0.07-0.09c-0.58,0.04-1.1-0.11-1.56-0.46c-0.68-0.52-0.98-1.21-0.94-2.06
				c0-0.04,0-0.06-0.06-0.06c-0.19,0.02-0.38,0.01-0.56-0.03c-0.9-0.18-1.52-0.69-1.84-1.55c-0.11-0.3-0.15-0.62-0.13-0.94
				c0-0.05,0-0.07-0.06-0.06c-0.33,0.03-0.65-0.02-0.95-0.13c-1.43-0.51-2.02-2.23-1.2-3.51c0.03-0.05,0.02-0.06-0.02-0.1
				c-0.48-0.36-0.93-0.76-1.32-1.21c-1.39-1.6-2.12-3.46-2.19-5.57c-0.03-0.85,0.07-1.68,0.29-2.5c0.5-1.84,1.49-3.36,2.98-4.56
				c1.54-1.23,3.31-1.86,5.28-1.92c0.67-0.02,1.34,0.05,1.99,0.18c1.48,0.31,2.79,0.96,3.93,1.95c0.05,0.04,0.07,0.05,0.13,0.01
				c1.48-1.28,3.21-1.99,5.17-2.13c0.56-0.04,1.13-0.02,1.69,0.05c0.59,0.07,1.16,0.2,1.71,0.39c1.76,0.61,3.2,1.67,4.29,3.18
				c0.96,1.33,1.49,2.82,1.62,4.45c0.01,0.11,0,0.23,0.03,0.34c0,0.21,0,0.43,0,0.64c0,0.04-0.01,0.07-0.01,0.11
				c-0.02,0.55-0.1,1.08-0.23,1.61c-0.38,1.56-1.12,2.92-2.24,4.07c-0.04,0.04-0.05,0.07-0.04,0.12c0.03,0.18,0.01,0.36-0.01,0.55
				c-0.1,0.68-0.44,1.23-1,1.62c-0.44,0.31-0.94,0.44-1.48,0.41c-0.06,0-0.08,0.01-0.08,0.07c0.01,0.14,0.01,0.28-0.01,0.42
				c-0.06,0.51-0.26,0.96-0.61,1.34c-0.52,0.55-1.16,0.8-1.91,0.75c-0.04,0-0.05,0-0.05,0.05c0.03,0.41-0.04,0.8-0.21,1.17
				c-0.44,0.97-1.54,1.54-2.59,1.33c-0.13-0.03-0.26-0.06-0.39-0.1c-0.01,0.05-0.02,0.1-0.03,0.14c-0.1,0.51-0.36,0.92-0.73,1.29
				c-0.85,0.84-1.69,1.69-2.54,2.53c-0.33,0.33-0.72,0.54-1.17,0.64C28.59,30.36,28.48,30.38,28.38,30.39z M27.28,20.41
				c0.92-0.68,1.91-0.79,2.87-0.14c0.99,0.66,1.22,1.63,0.92,2.76c0.03,0,0.06,0.01,0.1,0.02c0.68,0.1,1.22,0.43,1.61,1
				c0.09,0.14,0.2,0.26,0.32,0.37c0.33,0.32,0.73,0.44,1.17,0.34c0.59-0.14,0.97-0.6,1-1.22c0.02-0.37-0.13-0.67-0.38-0.93
				c-0.52-0.52-1.04-1.04-1.56-1.56c-1.39-1.39-2.79-2.79-4.18-4.18c-0.05-0.05-0.05-0.07,0-0.11c0.22-0.22,0.44-0.44,0.66-0.66
				c0.05-0.05,0.07-0.05,0.12,0c1.59,1.59,3.18,3.18,4.77,4.78c0.34,0.34,0.68,0.7,1.04,1.03c0.32,0.3,0.72,0.39,1.15,0.28
				c0.97-0.25,1.29-1.43,0.59-2.14c-0.78-0.79-1.57-1.57-2.36-2.36c-1.13-1.13-2.26-2.26-3.4-3.39c-0.04-0.04-0.04-0.07,0-0.11
				c0.22-0.22,0.45-0.44,0.67-0.67c0.04-0.05,0.07-0.05,0.12,0c0.94,0.94,1.87,1.88,2.81,2.81c0.97,0.97,1.94,1.94,2.91,2.91
				c0.34,0.34,0.75,0.47,1.22,0.36c0.56-0.13,0.97-0.65,0.98-1.22c0-0.38-0.15-0.69-0.41-0.96c-2.63-2.63-5.27-5.27-7.9-7.9
				c-0.04-0.04-0.06-0.05-0.11,0c-1.35,1.35-2.7,2.71-4.06,4.06c-0.77,0.76-1.7,1-2.76,0.81c-0.68-0.13-1.29-0.43-1.84-0.83
				c-0.38-0.28-0.71-0.61-1.05-0.94c-0.04-0.04-0.04-0.06,0-0.1c1.37-1.37,2.74-2.74,4.11-4.11c0.74-0.74,1.48-1.48,2.22-2.22
				c0.04-0.04,0.05-0.06,0-0.09c-0.14-0.1-0.27-0.22-0.41-0.32c-1.24-0.91-2.62-1.41-4.16-1.5c-0.62-0.03-1.23,0.01-1.84,0.13
				c-0.8,0.15-1.57,0.42-2.28,0.83c-2.36,1.39-3.68,3.44-3.92,6.17c-0.07,0.74,0,1.48,0.17,2.2c0.43,1.87,1.44,3.37,2.98,4.52
				c0.05,0.03,0.07,0.03,0.11-0.01c0.26-0.27,0.52-0.54,0.8-0.79c0.66-0.62,1.44-0.82,2.3-0.58c0.96,0.27,1.51,0.93,1.7,1.91
				c0.02,0.09,0.01,0.09,0.1,0.06c0.43-0.15,0.87-0.18,1.31-0.07C26.44,18.86,27.02,19.48,27.28,20.41z M42.94,11.9
				c-0.01-0.2-0.01-0.39-0.03-0.58c-0.04-0.59-0.15-1.17-0.33-1.73c-0.5-1.57-1.42-2.85-2.74-3.84c-1.14-0.85-2.43-1.34-3.85-1.47
				c-0.44-0.04-0.89-0.04-1.33-0.01c-0.48,0.04-0.95,0.12-1.42,0.25c-1.02,0.28-1.94,0.76-2.76,1.42c-0.39,0.31-0.72,0.67-1.07,1.02
				c-1.39,1.38-2.78,2.77-4.17,4.16c-0.44,0.44-0.88,0.88-1.32,1.32c-0.02,0.02-0.07,0.04-0.01,0.08c0.36,0.27,0.73,0.52,1.16,0.67
				c0.37,0.13,0.75,0.19,1.15,0.12c0.4-0.07,0.72-0.28,1.01-0.56c1.6-1.6,3.2-3.2,4.8-4.8c0.04-0.04,0.06-0.05,0.11,0
				c1.64,1.64,3.27,3.28,4.91,4.92c1.32,1.32,2.65,2.65,3.97,3.97c0.07,0.07,0.07,0.07,0.13-0.01
				C42.32,15.41,42.91,13.75,42.94,11.9z M28.83,20.94c-0.36,0-0.66,0.14-0.91,0.39c-1.07,1.07-2.14,2.13-3.2,3.2
				c-0.3,0.3-0.43,0.67-0.37,1.1c0.07,0.59,0.62,1.09,1.22,1.1c0.38,0.01,0.7-0.13,0.97-0.4c0.46-0.46,0.91-0.93,1.38-1.38
				c0.61-0.6,1.2-1.2,1.8-1.8c0.3-0.3,0.44-0.67,0.38-1.09C30.01,21.42,29.46,20.94,28.83,20.94z M32.1,25.38
				c0-0.21-0.05-0.41-0.15-0.59c-0.26-0.48-0.77-0.74-1.3-0.67c-0.28,0.04-0.52,0.16-0.71,0.35c-0.88,0.88-1.76,1.76-2.63,2.64
				c-0.34,0.34-0.46,0.75-0.35,1.22c0.13,0.55,0.65,0.96,1.21,0.97c0.37,0,0.67-0.13,0.93-0.38c0.29-0.29,0.58-0.58,0.86-0.86
				c0.59-0.59,1.17-1.17,1.76-1.76C31.97,26.04,32.1,25.74,32.1,25.38z M23.15,24.14c0.23,0,0.54-0.13,0.79-0.38
				c0.64-0.64,1.29-1.28,1.93-1.93c0.31-0.32,0.43-0.7,0.35-1.14c-0.17-0.93-1.31-1.35-2.04-0.76c-0.05,0.04-0.1,0.09-0.15,0.13
				c-0.63,0.63-1.26,1.26-1.89,1.88c-0.26,0.26-0.4,0.56-0.4,0.93C21.75,23.57,22.33,24.14,23.15,24.14z M22.76,19.74
				c0.35-0.42,0.38-1.2-0.17-1.7c-0.54-0.49-1.26-0.37-1.59-0.07c0.03,0.01,0.06,0,0.09,0.03c-0.03,0.01-0.06,0.02-0.09,0.03
				c-0.11,0.03-0.19,0.08-0.27,0.16c-0.33,0.34-0.67,0.68-1.01,1.01c-0.12,0.12-0.22,0.24-0.25,0.4c0,0.01-0.01,0.01-0.02,0.03
				c-0.01-0.04-0.02-0.07-0.03-0.1c-0.19,0.21-0.34,0.67-0.21,1.09c0.16,0.5,0.5,0.81,1.02,0.91c0.35,0.06,0.66-0.02,0.96-0.23
				c-0.04-0.01-0.07-0.02-0.1-0.03c0.03-0.03,0.07-0.03,0.1-0.04c0.1-0.03,0.18-0.08,0.25-0.15c0.34-0.35,0.69-0.7,1.04-1.05
				c0.1-0.1,0.18-0.21,0.21-0.35c0-0.01,0.01-0.03,0.02-0.03C22.74,19.68,22.75,19.71,22.76,19.74z"/>
		</g>
	</g>
	<g id="vJ56ZW_1_">
		<g>
			<path d="M22.55,53.55c-3.03,0-6.07,0-9.1,0c-0.09,0-0.17,0-0.26,0c-0.34-0.02-0.53-0.21-0.53-0.55c0-1.83,0-3.66,0-5.49
				c0-0.35,0.2-0.55,0.55-0.55c0.78,0,1.57-0.01,2.35,0c0.18,0,0.23-0.04,0.2-0.23c-0.03-0.19-0.03-0.39-0.03-0.58
				c0-1.82,0-3.63,0-5.45c0-1.29,0.57-2.33,1.43-3.24c1.04-1.1,2.33-1.84,3.72-2.42c2.06-0.86,4.22-1.3,6.43-1.49
				c2.17-0.19,4.34-0.14,6.5,0.19c2.35,0.36,4.6,1,6.66,2.23c0.82,0.49,1.57,1.09,2.18,1.83c0.75,0.92,1.15,1.95,1.13,3.17
				c-0.03,1.64-0.04,3.29,0.01,4.93c0.04,1.55-0.57,2.78-1.64,3.83c-1.13,1.1-2.48,1.82-3.93,2.38c-1.91,0.74-3.9,1.13-5.93,1.32
				c-1.12,0.1-2.25,0.12-3.37,0.11C26.78,53.54,24.66,53.55,22.55,53.55z M42.75,43.51c-0.09,0.1-0.13,0.14-0.17,0.18
				c-0.31,0.37-0.66,0.7-1.04,1c-1.32,1.05-2.82,1.73-4.42,2.23c-2.35,0.74-4.77,1.05-7.22,1.06c-4.03,0.01-8.07,0-12.1,0
				c-0.15,0-0.31,0.03-0.46,0.02c-1.16-0.05-2.31,0-3.47-0.02c-0.15,0-0.19,0.06-0.18,0.19c0.01,0.06,0,0.12,0,0.19
				c0,1.31,0,2.62,0,3.93c0,0.17,0.04,0.24,0.22,0.22c0.19-0.01,0.37-0.01,0.56,0c0.17,0.01,0.23-0.05,0.22-0.22
				c-0.01-0.59-0.01-1.18,0-1.77c0-0.29,0.13-0.45,0.35-0.45c0.24,0,0.37,0.16,0.37,0.46c0,0.57,0.01,1.15-0.01,1.72
				c-0.01,0.23,0.07,0.27,0.28,0.26c0.38-0.01,0.76-0.01,1.14,0c0.2,0.01,0.28-0.04,0.28-0.26c-0.02-0.58-0.01-1.16,0-1.75
				c0-0.25,0.11-0.4,0.31-0.43c0.25-0.04,0.42,0.13,0.43,0.42c0,0.61,0.01,1.21,0,1.82c0,0.15,0.04,0.2,0.19,0.2
				c0.41-0.01,0.82-0.01,1.23,0c0.2,0.01,0.27-0.04,0.26-0.25c-0.02-0.6-0.01-1.19,0-1.79c0-0.25,0.15-0.4,0.36-0.4
				c0.21,0,0.35,0.15,0.37,0.39c0,0.06,0,0.12,0,0.19c0,0.56,0,1.12,0,1.68c0,0.14,0.04,0.19,0.18,0.19c0.4-0.01,0.81-0.02,1.21,0
				c0.23,0.01,0.3-0.05,0.3-0.29c-0.02-0.59-0.01-1.18,0-1.77c0-0.23,0.14-0.38,0.35-0.38c0.21,0,0.35,0.13,0.37,0.36
				c0.01,0.07,0,0.14,0,0.21c0,0.54,0.01,1.09,0,1.63c0,0.2,0.06,0.25,0.25,0.24c0.4-0.01,0.79-0.02,1.19,0
				c0.22,0.01,0.26-0.07,0.25-0.27c-0.01-0.53,0-1.05,0-1.58c0-0.06,0-0.12,0-0.19c0.01-0.27,0.15-0.42,0.37-0.41
				c0.21,0.01,0.35,0.15,0.35,0.41c0,0.61,0.01,1.21,0,1.82c0,0.18,0.05,0.22,0.23,0.22c0.42-0.01,0.84-0.01,1.26,0
				c0.17,0,0.21-0.06,0.21-0.21c-0.01-0.58,0-1.16,0-1.75c0-0.32,0.13-0.49,0.37-0.48c0.23,0,0.36,0.17,0.36,0.47
				c0,0.59,0,1.18,0,1.77c0,0.15,0.04,0.2,0.19,0.2c0.43-0.01,0.85-0.01,1.28,0c0.16,0,0.21-0.04,0.21-0.21
				c-0.01-0.59,0-1.18,0-1.77c0-0.3,0.13-0.47,0.37-0.47c0.23,0,0.37,0.17,0.37,0.47c0,0.6,0,1.19,0,1.79
				c0,0.14,0.04,0.19,0.18,0.18c0.42-0.01,0.84-0.01,1.26-0.05c0.32-0.03,0.32-0.02,0.33-0.36c0-0.55,0-1.1,0-1.65
				c0-0.24,0.14-0.38,0.35-0.39c0.22-0.01,0.36,0.14,0.37,0.38c0,0.06,0,0.12,0,0.19c0,0.5,0.01,1.01,0,1.51
				c0,0.18,0.04,0.24,0.22,0.21c0.42-0.07,0.84-0.13,1.27-0.18c0.17-0.02,0.2-0.1,0.2-0.24c-0.01-0.57,0-1.13,0-1.7
				c0-0.32,0.14-0.49,0.37-0.49c0.23,0.01,0.35,0.17,0.36,0.48c0,0.52,0.01,1.04,0,1.56c0,0.16,0.03,0.22,0.21,0.17
				c0.42-0.11,0.84-0.22,1.26-0.32c0.17-0.04,0.22-0.12,0.21-0.29c-0.01-0.55-0.01-1.1,0-1.65c0-0.28,0.14-0.45,0.36-0.45
				c0.23,0,0.37,0.17,0.37,0.46c0,0.49,0,0.98,0,1.47c0,0.13,0.03,0.17,0.16,0.11c0.39-0.16,0.78-0.31,1.17-0.46
				c0.12-0.05,0.13-0.13,0.13-0.24c0-0.61,0-1.21,0-1.82c0-0.28,0.14-0.44,0.37-0.44c0.22,0,0.36,0.17,0.37,0.45
				c0,0.47,0,0.93,0,1.4c0,0.06-0.03,0.14,0.05,0.21c0.24-0.14,0.47-0.29,0.72-0.42c0.12-0.07,0.17-0.16,0.16-0.3
				c-0.01-0.65,0-1.3,0-1.95c0-0.27,0.14-0.42,0.36-0.42c0.22,0,0.36,0.15,0.37,0.42c0.01,0.28,0,0.56,0,0.84c0,0.24,0,0.47,0,0.76
				c0.31-0.25,0.54-0.49,0.76-0.74c0.08-0.09,0.12-0.19,0.12-0.31c-0.01-0.57,0-1.13,0-1.7c0-0.3,0.11-0.45,0.32-0.45
				c0.21,0,0.31,0.15,0.31,0.46c0,0.2,0,0.4,0,0.6c0.03,0,0.05,0,0.08,0C42.85,45.98,42.67,44.77,42.75,43.51z M29.76,34.48
				c-1.18-0.01-2.36,0.07-3.53,0.24c-2.08,0.3-4.09,0.82-5.97,1.78c-1,0.51-1.92,1.14-2.64,2.02c-1.11,1.35-1.16,2.83-0.11,4.24
				c0.52,0.7,1.19,1.24,1.93,1.69c1.64,1.02,3.45,1.61,5.33,2c2.76,0.57,5.54,0.64,8.33,0.27c1.96-0.26,3.87-0.74,5.67-1.58
				c1.17-0.55,2.25-1.22,3.09-2.23c1.12-1.35,1.16-2.83,0.12-4.24c-0.28-0.38-0.61-0.71-0.97-1c-1.09-0.9-2.33-1.5-3.65-1.96
				C34.91,34.83,32.36,34.49,29.76,34.48z M22.23,46.94c0.01-0.02,0.01-0.04,0.02-0.05c-2.07-0.7-4.01-1.63-5.48-3.37
				c0,1.02,0,1.99,0,2.96c0,0.05,0,0.1,0.02,0.14c0.04,0.11-0.03,0.31,0.13,0.3c0.18-0.01,0.08-0.2,0.09-0.3
				c0.01-0.39,0-0.78,0.01-1.16c0.01-0.27,0.15-0.42,0.37-0.41c0.22,0,0.35,0.16,0.36,0.43c0,0.38,0,0.76,0,1.14
				c0,0.35,0,0.35,0.36,0.34c0.14,0,0.19-0.05,0.19-0.19c-0.01-0.16-0.01-0.33,0-0.49c0.01-0.22,0.16-0.35,0.35-0.36
				c0.2,0,0.35,0.14,0.36,0.35c0.01,0.15,0,0.31,0.01,0.46c0,0.09-0.03,0.23,0.13,0.21c0.13-0.02,0.32,0.12,0.38-0.12
				c0.05-0.17,0.16-0.28,0.35-0.28c0.19,0,0.31,0.1,0.35,0.28c0.02,0.08,0.05,0.13,0.15,0.13C20.99,46.94,21.61,46.94,22.23,46.94z"
				/>
			<path d="M29.73,45.7c-2.06,0.02-4.08-0.26-6-1.06c-0.95-0.4-1.83-0.92-2.55-1.67c-1.3-1.38-1.3-3.14,0.01-4.52
				c0.92-0.96,2.07-1.54,3.31-1.96c2.09-0.71,4.25-0.9,6.45-0.77c1.64,0.1,3.24,0.41,4.77,1.04c0.96,0.4,1.85,0.92,2.57,1.68
				c0.48,0.51,0.83,1.1,0.95,1.8c0.16,0.96-0.16,1.78-0.76,2.5c-0.73,0.88-1.69,1.45-2.73,1.88c-1.56,0.66-3.2,0.96-4.88,1.06
				C30.49,45.72,30.11,45.7,29.73,45.7z M29.79,36.71c-1.85,0.01-3.62,0.25-5.32,0.89c-0.92,0.35-1.79,0.79-2.49,1.5
				c-0.35,0.36-0.62,0.77-0.71,1.28c-0.13,0.76,0.18,1.36,0.69,1.89c0.6,0.63,1.34,1.05,2.13,1.38c1.65,0.69,3.39,0.98,5.17,1.03
				c2.07,0.05,4.1-0.21,6.04-0.99c0.89-0.36,1.72-0.82,2.36-1.56c0.78-0.9,0.78-1.91,0.02-2.83c-0.16-0.2-0.35-0.38-0.55-0.54
				c-0.56-0.46-1.2-0.8-1.87-1.07C33.49,36.99,31.64,36.73,29.79,36.71z"/>
			<path d="M29.74,42.43c-0.84-0.02-1.67-0.12-2.44-0.51c-0.17-0.08-0.32-0.19-0.46-0.31c-0.6-0.52-0.6-1.31,0.01-1.81
				c0.46-0.38,1.01-0.57,1.59-0.68c1.13-0.22,2.25-0.18,3.35,0.2c0.3,0.1,0.58,0.25,0.83,0.46c0.65,0.53,0.65,1.33,0.01,1.86
				c-0.51,0.42-1.14,0.59-1.77,0.7C30.48,42.4,30.11,42.42,29.74,42.43z M29.75,41.39c0.67,0,1.33-0.08,1.94-0.38
				c0.14-0.07,0.35-0.13,0.35-0.3c0-0.17-0.21-0.23-0.35-0.3c-0.45-0.22-0.94-0.31-1.44-0.35c-0.76-0.06-1.5-0.01-2.22,0.25
				c-0.23,0.08-0.57,0.16-0.58,0.4c0,0.26,0.35,0.33,0.59,0.42C28.59,41.33,29.17,41.39,29.75,41.39z"/>
		</g>
	</g>
</g>
</svg>
