<?xml version="1.0" encoding="utf-8"?>
<!-- Generator: Adobe Illustrator 23.0.1, SVG Export Plug-In . SVG Version: 6.00 Build 0)  -->
<svg version="1.1" id="Слой_1" xmlns="http://www.w3.org/2000/svg" xmlns:xlink="http://www.w3.org/1999/xlink" x="0px" y="0px"
	 viewBox="0 0 56.69 56.69" style="enable-background:new 0 0 56.69 56.69;" xml:space="preserve">
<g>
	<path d="M44.29,31.4c1.6-0.68,2.41-2.54,1.82-4.17c-0.1-0.27-0.23-0.49-0.55-0.39c-0.32,0.1-0.31,0.37-0.23,0.64
		c0.05,0.18,0.11,0.36,0.14,0.55c0.2,1.33-0.84,2.65-2.17,2.78c-1.43,0.14-2.67-0.86-2.77-2.23c-0.14-1.91,1.53-3.15,3.4-2.53
		c0.29,0.1,0.6,0.19,0.73-0.2c0.12-0.35-0.17-0.47-0.44-0.58c-2.16-0.85-4.48,0.68-4.53,3C39.63,30.68,42.09,32.35,44.29,31.4z"/>
	<path d="M45.62,34.96c-1.88-0.02-3.75-0.02-5.63,0c-0.79,0.01-1.27,0.51-1.32,1.3c-0.01,0.19-0.01,0.38,0,0.57
		c0.02,0.94,0.5,1.42,1.45,1.43c0.9,0.01,1.79,0,2.69,0c0.91,0,1.82,0.01,2.74,0c0.88-0.01,1.37-0.5,1.39-1.38
		c0.01-0.21,0.01-0.41,0-0.62C46.89,35.47,46.42,34.97,45.62,34.96z M41.05,37.44c-0.34,0-0.69,0-1.03,0c-0.33,0-0.51-0.16-0.52-0.5
		c0-0.21,0-0.41,0-0.62c0-0.36,0.18-0.54,0.54-0.53c0.69,0,1.38,0.01,2.06,0c0.23,0,0.32,0.08,0.29,0.3c0,0.02,0,0.03,0,0.05
		C42.45,37.44,42.45,37.44,41.05,37.44z M46.11,36.96c-0.01,0.31-0.18,0.47-0.49,0.47c-0.7,0-1.41-0.01-2.11,0.01
		c-0.23,0-0.31-0.09-0.28-0.31c0-0.02,0-0.03,0-0.05c-0.05-1.3-0.05-1.3,1.35-1.3c0.34,0,0.69,0,1.03,0c0.34,0,0.51,0.17,0.51,0.51
		C46.12,36.52,46.12,36.74,46.11,36.96z"/>
	<path d="M43,33.72c2.92,0,5.36-2.43,5.37-5.35c0.01-2.93-2.46-5.4-5.39-5.39c-2.93,0-5.35,2.43-5.36,5.36
		C37.62,31.3,40.04,33.72,43,33.72z M43,23.81c2.47,0.01,4.53,2.07,4.54,4.54c0.01,2.48-2.09,4.57-4.58,4.55
		c-2.49-0.02-4.52-2.07-4.5-4.56C38.47,25.84,40.53,23.79,43,23.81z"/>
	<path d="M52.81,23.79c0.38,0.04,0.74-0.08,1.08-0.28c0.5-0.29,0.9-0.71,0.9-1.27s0-5.26,0-5.99s-0.87-1.58-1.93-1.54
		c-0.47,0.02-0.54-0.14-0.57-0.57c-0.12-1.94-1.22-3.35-2.97-3.84c-0.79-0.22-1.61-0.15-2.41-0.14c-0.29,0-0.39-0.07-0.38-0.37
		c0.02-0.52,0-1.03,0.01-1.55c0.01-0.39-0.17-0.57-0.56-0.56c-0.45,0.01-0.9,0.01-1.34,0c-0.42-0.01-0.59,0.19-0.58,0.6
		c0.01,0.4,0,0.79,0,1.19c0,0.69,0,0.69-0.67,0.69c-10.78,0-21.55,0-32.33,0c-0.27,0-0.6,0.07-0.8-0.05
		c-0.21-0.13-0.06-0.48-0.08-0.73c-0.03-0.26-0.14-0.44-0.41-0.44C9.49,8.93,9.37,9.11,9.34,9.37C9.3,9.63,9.47,9.99,9.22,10.13
		c-0.21,0.12-0.54,0.03-0.81,0.04c-0.15,0-0.31,0-0.46,0c-2.46,0.07-4.45,1.95-4.41,4.55c0.04,2.51,0.03,5.02,0.02,7.54l0,0v2.56
		c0,0,0,0,0,0.01v2.29c0,0.07,0.02,0.14,0.05,0.2l1.21,2.19c0.07,0.13,0.21,0.21,0.36,0.21h2.8v2.82c0,0.27,0.22,0.48,0.48,0.48
		h0.31c0.04,0.07,0.05,0.16,0.05,0.28c-0.01,1.08,0,2.17,0,3.25c0,0.41,0,0.83,0,1.24c0,0.28,0.13,0.48,0.42,0.47
		c0.27-0.01,0.39-0.19,0.4-0.45c0-0.12,0-0.24,0-0.36c0-1.38,0-2.75,0-4.13c0-0.1-0.02-0.22,0.01-0.31h0.33
		c0.27,0,0.48-0.22,0.48-0.48v-2.82h2.6c0.2,0,0.37-0.14,0.4-0.33l0.36-1.93l1.35-4.3h15.32l3.91,5.64v11.56v0.12
		c0,0.07,0,0.15,0,0.19c0,0.09-0.17,0.09-0.17,0.09H32.8c-0.02,0-0.04,0.01-0.07,0.01c-9.33-0.02-18.66,0-27.99-0.02
		c-1.33,0-2.84,0.68-2.84,2c0,1.08,0,5.44,0,5.86s0.56,0.42,0.87,0.42c16.9,0,33.8,0,50.7,0c0.12,0,0.24,0,0.36,0
		c0.36,0.01,0.55-0.16,0.55-0.53c0-1.94,0.02-3.89-0.02-5.83c-0.02-1.07-0.69-1.76-1.75-1.89c-0.31-0.04-0.3-0.18-0.3-0.4
		c0-1,0-2,0-2.99c0-4.35,0.01-8.71-0.01-13.06C52.3,23.91,52.39,23.75,52.81,23.79z M45.31,8.5c0.33-0.01,0.39,0.23,0.39,0.41
		s-0.01,0.51,0,0.77s0,0.5-0.41,0.5c-0.41,0-0.42-0.24-0.42-0.49s0-0.5,0-0.77S45,8.51,45.31,8.5z M9.23,32.24
		c-0.27,0-0.43-0.06-0.42-0.45c0.01-0.69,0.01-1.39,0-2.08h0.83c0,0.24,0,0.48,0,0.72c0,0.45,0,1.01,0.01,1.34
		C9.65,32.1,9.5,32.24,9.23,32.24z M31.06,22.5c-0.08-0.11-0.2-0.18-0.34-0.18H14.89c-0.18,0-0.34,0.12-0.39,0.29l-1.45,4.63
		l-0.31,1.64H9.99H8.46H5.42L4.38,27v-2.19c0,0,0,0,0,0v-2.68l0.01,0c0-1.6-0.01-3.21-0.02-4.81c0-0.47,0.12-0.56,0.57-0.56
		c12.86,0.01,25.72,0.01,38.58,0.01c0.19,0,0.38,0.01,0.57-0.01c0.23-0.03,0.38-0.18,0.37-0.42c-0.01-0.21-0.15-0.35-0.36-0.38
		c-0.19-0.02-0.38-0.01-0.57-0.01c-12.79,0-25.58,0-38.38,0c-0.77,0-0.77,0-0.77-0.8c-0.01-0.76-0.02-1.52,0.37-2.21
		c0.76-1.33,1.94-1.95,3.45-1.95c3.8,0,7.61,0,11.41,0c2.86,0,5.72,0,8.57,0c6.56,0,13.12,0,19.68,0c2.32,0,3.61,1.29,3.62,3.61
		c0,0.43,0.14,0.99-0.07,1.25c-0.05,0.06-0.12,0.08-0.19,0.11h-0.94c-0.05,0-0.1-0.01-0.15-0.01c-0.74,0.02-1.48,0.01-2.22,0
		c-0.29,0-0.54,0.08-0.54,0.41s0.24,0.42,0.53,0.42c1.05,0,2.1,0.01,3.15-0.01c0.33-0.01,0.44,0.08,0.44,0.42
		c-0.01,7.71-0.01,15.43,0,23.14c0,0.35-0.12,0.42-0.44,0.42c-5.21-0.01-10.43-0.01-15.64,0l0,0c0,0-0.17,0-0.17-0.08V28.66
		c0-0.08-0.03-0.17-0.07-0.23L31.06,22.5z M53.55,43.06c0,1.53-0.02,3.06,0.01,4.6c0.01,0.44-0.12,0.53-0.54,0.53
		c-8.3-0.01-16.59-0.01-24.89-0.01c-8.28,0-16.56,0-24.84,0.01c-0.48,0-0.6-0.12-0.59-0.59c0.03-1.51,0.01-3.03,0.01-4.54
		c0-0.82,0.58-1.43,1.4-1.48c0.17-0.01,0.34-0.01,0.52-0.01c15.8,0,31.6,0,47.4,0C53.21,41.57,53.55,41.9,53.55,43.06z M52.31,22.58
		c0.02-1.12,0.01-2.24,0.01-3.35c0-1.1,0.01-2.2-0.01-3.3c-0.01-0.33,0.1-0.4,0.41-0.4c0.74,0.01,1.2,0.35,1.22,1.1
		c0.04,1.75,0.04,3.51,0,5.26c-0.02,0.75-0.48,1.08-1.23,1.09C52.39,22.99,52.3,22.9,52.31,22.58z"/>
</g>
</svg>
