<?xml version="1.0" encoding="utf-8"?>
<!-- Generator: Adobe Illustrator 23.0.1, SVG Export Plug-In . SVG Version: 6.00 Build 0)  -->
<svg version="1.1" id="Слой_1" xmlns="http://www.w3.org/2000/svg" xmlns:xlink="http://www.w3.org/1999/xlink" x="0px" y="0px"
	 viewBox="0 0 56.69 56.69" style="enable-background:new 0 0 56.69 56.69;" xml:space="preserve">
<g>
	<path d="M36.73,51.97c2.4,0.55,4.47-0.07,6.16-1.83c0.36-0.37,0.72-0.75,1.18-1.03c0.23-0.14,0.35-0.37,0.37-0.69
		c0.03-0.64,0.04-1.4-0.04-2.16c-0.31-3.02-1.28-5.79-2.18-8.11c-2.03-5.19-4.72-10.11-7.07-14.23c-0.62-1.08-0.87-2.05-0.83-3.14
		c0.04-0.93,0.22-1.58,0.61-2.19c1.3-2.05,2.07-4.05,2.36-6.13c0.05-0.38,0.21-0.56,0.59-0.65c1.18-0.27,2.35-0.55,3.52-0.83
		l1.09-0.26c0.68-0.16,0.83-0.36,0.78-1.06c-0.13-2.16-1.1-3.93-2.9-5.27c-0.92-0.68-2.01-1.01-2.96-1.26h-4.11
		c-0.3,0.21-0.42,0.5-0.4,0.92c0.03,0.65-0.05,1.33-0.23,2.04c-0.4,1.56-1.37,2.47-2.91,2.7c-1.12,0.17-2.19,0.16-3.19-0.04
		c-1.62-0.32-2.57-1.44-2.83-3.32c-0.08-0.57-0.11-1.03-0.1-1.45c0.01-0.39-0.12-0.66-0.42-0.86h-4.09
		c-0.18,0.05-0.23,0.07-0.38,0.11c-0.15,0.04-0.26,0.07-0.33,0.09c-2.89,0.7-5.11,3.46-5.16,6.43c-0.01,0.65,0.11,0.8,0.72,0.95
		c0.4,0.1,0.79,0.19,1.19,0.29c1.11,0.27,2.25,0.55,3.38,0.79c0.53,0.11,0.67,0.39,0.73,0.8c0.28,1.93,0.89,3.64,1.82,5.08
		c0.91,1.41,1.26,2.76,1.1,4.27c-0.04,0.37-0.09,0.7-0.28,1.03c-1.45,2.51-3.14,5.48-4.65,8.5c-1.67,3.33-3.35,6.96-4.37,10.87
		c-0.43,1.66-0.9,3.86-0.64,6.17c0.04,0.34,0.15,0.52,0.4,0.65c0.44,0.22,0.78,0.57,1.03,0.84c1.7,1.9,3.83,2.57,6.32,1.98
		c0.61-0.14,1.2-0.21,1.77-0.21c1.17,0,2.27,0.3,3.34,0.9c2.08,1.18,4.2,1.19,6.29,0.02C33.1,51.76,34.83,51.53,36.73,51.97z
		 M37.56,4.73c0.12-0.09,0.29-0.05,0.43,0c2.03,0.68,3.32,2.13,3.84,4.31c0.04,0.17,0.03,0.29-0.03,0.4
		c-0.06,0.1-0.17,0.17-0.34,0.21c-1.13,0.27-2.34,0.55-3.55,0.87c-0.06,0.01-0.12,0.03-0.18,0.03c-0.07,0-0.13-0.01-0.18-0.06
		c-0.11-0.09-0.11-0.24-0.11-0.38c0-0.6,0-1.21,0-1.81l0-0.66l0-0.76c0-0.57,0-1.14-0.01-1.72C37.43,4.98,37.44,4.82,37.56,4.73z
		 M18.73,10.48c-0.05,0.04-0.12,0.06-0.18,0.06c-0.06,0-0.13-0.01-0.19-0.03c-1.19-0.31-2.4-0.6-3.54-0.87
		c-0.39-0.09-0.41-0.34-0.38-0.59c0.24-1.9,2.08-3.94,3.93-4.35c0.12-0.02,0.26-0.04,0.37,0.04c0.11,0.09,0.11,0.26,0.11,0.38
		c-0.01,0.61,0,1.21,0,1.82l0,0.7l0,0.65c0,0.61,0,1.21,0,1.82C18.84,10.25,18.83,10.39,18.73,10.48z M20.44,12.98
		c-0.12-0.63-0.25-1.37-0.25-2.13c0-0.65,0-1.3,0-1.95c0-1.3,0-2.6-0.01-3.9c0-0.17,0.01-0.34,0.13-0.45
		c0.12-0.11,0.29-0.11,0.41-0.1c0.14,0.01,0.29,0,0.44-0.01c0.29-0.02,0.59-0.04,0.82,0.08c0.32,0.17,0.31,0.53,0.3,0.85
		c0,0.14,0,0.22,0.02,0.38c0.54,2.88,2.21,4.34,5.11,4.46c0.84,0.04,1.74,0.04,2.63-0.13c2.06-0.41,3.31-1.66,3.83-3.8
		c0.1-0.42,0.2-0.88,0.21-1.34c0-0.42,0.28-0.48,0.51-0.49c0.74-0.02,1.1-0.03,1.31,0.17c0.21,0.2,0.21,0.56,0.21,1.27
		c0,0.51,0,1.01,0,1.52c0,0.96,0,1.92,0,2.89c0.01,2.14-0.51,4.23-1.55,6.24c-0.16,0.3-0.33,0.6-0.5,0.9
		c-0.18,0.31-0.37,0.64-0.53,0.97c-0.15,0.3-0.36,0.42-0.73,0.42c0,0-0.01,0-0.01,0c-1.18-0.01-2.35-0.01-3.53-0.01l-1.18,0
		c-1.53,0-3.07,0-4.61,0l-0.06,0c-0.2,0-0.43,0.01-0.6-0.28C21.74,16.68,20.82,14.97,20.44,12.98z M33.03,20.8l0,0.05
		c-0.02,1.08-0.08,1.13-1.16,1.13c0,0-0.01,0-0.02,0l-4.84,0c-1.03,0-2.05,0-3.08,0.01c-0.01,0-0.02,0-0.03,0
		c-0.16,0-0.32-0.01-0.43-0.12c-0.09-0.09-0.13-0.22-0.13-0.42V21.4c0-0.59,0-0.89,0.18-1.07c0.18-0.17,0.49-0.17,1.1-0.17l1.83,0
		c1.95,0,3.97,0,5.95-0.01c0.25-0.01,0.4,0.04,0.5,0.14C33.02,20.41,33.03,20.61,33.03,20.8z M28.31,52.15
		c-0.23,0-0.46-0.02-0.7-0.06c-0.69-0.12-1.35-0.37-2.02-0.77c-0.78-0.46-1.5-0.73-2.21-0.82c-0.17-0.02-0.28-0.07-0.34-0.16
		c-0.08-0.11-0.07-0.26-0.04-0.41c0.7-3.79,1.69-8.77,3.22-13.68c0.09-0.29,0.09-0.5,0.01-0.66c-0.07-0.13-0.2-0.22-0.4-0.28
		c-0.21-0.06-0.38-0.06-0.52,0.01c-0.14,0.08-0.25,0.24-0.33,0.49c-0.91,3.03-1.71,6.22-2.38,9.48c-0.32,1.57-0.63,3.12-0.92,4.61
		c-0.06,0.33-0.19,0.55-0.64,0.59c-0.41,0.04-0.83,0.11-1.23,0.19c-0.25,0.05-0.51,0.09-0.76,0.13c-1.51,0.22-2.84-0.21-3.95-1.29
		c-0.14-0.13-0.27-0.27-0.41-0.4c-0.29-0.29-0.6-0.59-0.91-0.87c-0.23-0.2-0.23-0.44-0.24-0.65c-0.06-1.7,0.21-3.49,0.84-5.66
		c1.42-4.86,3.66-9.32,5.87-13.41c0.5-0.92,1.02-1.85,1.52-2.74c0.39-0.7,0.79-1.4,1.18-2.1c0.17-0.31,0.39-0.44,0.76-0.44
		c0.01,0,0.01,0,0.02,0c1.13,0.01,2.28,0.01,3.39,0.01l1.22,0l1.3,0c1.1,0,2.21,0,3.31,0c0.3,0,0.54,0.06,0.71,0.38l0.38,0.7
		c2.48,4.58,5.05,9.31,6.94,14.28c0.93,2.47,1.82,5.15,1.98,8.07c0.05,0.85,0.01,1.66-0.92,2.23c-0.31,0.19-0.56,0.45-0.83,0.73
		c-0.14,0.14-0.28,0.29-0.42,0.42c-0.13,0.12-0.3,0.25-0.48,0.2c-0.18-0.06-0.24-0.28-0.28-0.47c-0.56-2.82-1.35-5.74-2.49-9.19
		c-1.33-4.03-2.92-7.89-4.74-11.49c-0.17-0.33-0.39-0.53-0.62-0.56c-0.18-0.03-0.37,0.06-0.52,0.25c-0.2,0.23-0.21,0.47-0.03,0.82
		c1.4,2.73,2.64,5.6,3.8,8.76c1.34,3.67,2.49,7.58,3.4,11.64c0.08,0.36,0.12,0.54,0.02,0.67c-0.1,0.13-0.28,0.13-0.65,0.14
		c-0.02,0-0.04,0-0.07,0c-0.44,0-0.85-0.1-1.25-0.2c-0.12-0.03-0.25-0.06-0.37-0.09c-1.85-0.41-3.61-0.17-5.24,0.69
		C30.42,51.68,29.44,52.15,28.31,52.15z"/>
	<path d="M21.75,32.03c-0.26,0.07-0.37,0.27-0.5,0.56c-1.13,2.52-2.15,5.36-3.11,8.68c-0.24,0.84-0.43,1.52-0.58,2.14
		c-0.09,0.39,0.09,0.74,0.44,0.84c0.36,0.09,0.69-0.12,0.82-0.53c0.02-0.06,0.04-0.12,0.06-0.18c0.97-3.68,2.18-7.18,3.58-10.38
		c0.04-0.1,0.07-0.21,0.09-0.29c0.01-0.03,0.01-0.05,0.02-0.07c0.01-0.3-0.08-0.54-0.26-0.68C22.18,32.01,21.98,31.98,21.75,32.03z"
		/>
</g>
</svg>
