<?xml version="1.0" encoding="utf-8"?>
<!-- Generator: Adobe Illustrator 23.0.1, SVG Export Plug-In . SVG Version: 6.00 Build 0)  -->
<svg version="1.1" id="Слой_1" xmlns="http://www.w3.org/2000/svg" xmlns:xlink="http://www.w3.org/1999/xlink" x="0px" y="0px"
	 viewBox="0 0 56.69 56.69" style="enable-background:new 0 0 56.69 56.69;" xml:space="preserve">
<g>
	<path d="M23.85,26.02c-0.07-0.12-0.2-0.21-0.36-0.21h-8.11c-0.23,0-0.42,0.19-0.42,0.42v0.28c0,0.23,0.19,0.42,0.42,0.42h0.56
		c0,0,0.01,0,0.01,0c0.84,0.02,1.69,0.01,2.53,0.01l1.03-0.01l1.03,0c0.21,0,0.42,0,0.63,0h2.31c0.23,0,0.42-0.19,0.42-0.42v-0.28
		c0-0.07-0.02-0.13-0.05-0.19C23.86,26.03,23.86,26.03,23.85,26.02z"/>
	<path d="M15.04,23.21c0,0.22,0.18,0.39,0.39,0.39h4.85c0.22,0,0.39-0.18,0.39-0.39v-0.26c0-0.22-0.18-0.39-0.39-0.39h-4.85
		c-0.22,0-0.39,0.18-0.39,0.39v0.15c0,0.01-0.01,0.02,0,0.04c0,0.01,0,0.03,0,0.04V23.21z"/>
	<path d="M36.35,30.03c1.03,0.02,2-0.38,2.72-1.1c0.71-0.7,1.1-1.62,1.1-2.6c0-0.95-0.42-1.92-1.17-2.65
		c-0.74-0.73-1.7-1.13-2.65-1.12c-1.98,0.03-3.62,1.68-3.67,3.67c-0.02,1.05,0.34,2.01,1.02,2.71
		C34.38,29.63,35.32,30.02,36.35,30.03z M36.37,23.69c0.01,0,0.02,0,0.03,0c0.67,0,1.35,0.29,1.86,0.81
		c0.51,0.52,0.79,1.22,0.77,1.9c-0.05,1.37-1.24,2.53-2.61,2.54c-0.01,0-0.01,0-0.02,0c-0.71,0-1.38-0.28-1.87-0.78
		c-0.5-0.51-0.76-1.19-0.75-1.9C33.82,24.88,35.01,23.71,36.37,23.69z"/>
	<path d="M50.08,41.33c0.01,0,0.02,0,0.03,0c1.75-0.02,2.14-1.45,2.15-2.65c0.03-1.82,0.02-3.67,0.01-5.47l0-1.51
		c0-0.2,0-0.4,0-0.61c0.01-0.6,0.02-1.23-0.07-1.82c-0.16-1.09-0.9-1.78-2-1.84c-1.12-0.06-1.8,0.46-2.19,1.62
		c-0.09,0.26-0.12,0.52-0.14,0.79l0.02,4.09h-1.27l0-1.55c0-0.04-0.01-2.57-0.02-2.69l-0.01-0.33c-0.31-6.74-4.69-11.9-11.32-13.24
		c-0.8-0.16-1.42-0.57-1.42-0.97s0.01-2.05,0-2.44s0.53-0.42,0.85-0.43c0.32-0.01,1.68,0.1,1.97-0.01c0.3-0.11,0.27-0.42,0.21-0.61
		s-0.89-0.72-1.3-1.23c-0.42-0.51-0.37-1.22-0.06-2.13S36.74,7.56,36.79,7s-0.47-0.49-1-0.59s-1.82-0.12-2.66-0.12
		c-0.84,0-2.14,0.02-2.66,0.12s-1.04,0.03-1,0.59s0.96,0.43,1.27,1.33c0.21,0.64,0.29,1.17,0.18,1.61
		c-0.03,0.09-0.07,0.19-0.11,0.28c-0.02,0.05-0.05,0.1-0.08,0.14c-0.04,0.06-0.09,0.13-0.14,0.19c-0.43,0.48-1.16,0.96-1.22,1.13
		c-0.06,0.19-0.08,0.51,0.21,0.61c0.3,0.11,1.63-0.02,1.94,0c0.3,0.02,0.88,0.09,0.88,0.44s0,2.51,0,2.51s0,0.2-0.1,0.32
		c-0.04,0.05-0.14,0.09-0.23,0.12c-0.4,0.09-0.8,0.17-1.2,0.26c-1.03,0.22-2.1,0.44-3.14,0.73c-0.99,0.27-1.99,0.58-2.95,0.88
		c-1.57,0.49-3.2,1-4.84,1.35c-3.26,0.69-7.35,0.97-10.1-3.08c-0.95-1.4-2.33-1.4-3.32-1.16c-1.25,0.31-2.09,1.51-2.1,3
		c-0.04,5.82-0.02,11.73-0.01,17.45l0,0.85c0,1.06,0.42,1.89,1.13,2.27c0.69,0.36,1.02,0.83,1.17,1.34v1.81
		c0,0.32,0.23,0.58,0.53,0.64c0.03,0.01,0.06,0.03,0.1,0.03c0.01,0,0.01-0.01,0.02-0.01c0.01,0,0.01,0,0.02,0
		c0.37,0,0.67-0.3,0.67-0.67V39.4c0.06-0.26,0.18-0.51,0.51-0.68c1.49-0.77,1.8-2.03,1.82-3.82c0.03-2.94,1.57-4.63,4.35-4.75
		c4.23-0.18,7.93-0.18,11.33,0.02c1.62,0.09,2.91,0.73,3.75,1.84c0.88,1.16,1.16,2.75,0.78,4.47c-0.4,1.83-0.87,3.68-1.32,5.47
		l-0.1,0.39c-0.48,1.92-0.58,2-2.55,2c-3.04,0-6.08,0-9.12,0c-2.43,0-4.86,0-7.3,0l-0.6,0c-0.79,0-1.61-0.01-2.41,0.06
		c-1.57,0.13-2.69,1.22-2.79,2.72c-0.09,1.39,0.93,2.63,2.5,3.01c0.58,0.14,1.15,0.17,1.83,0.17c5.32,0,10.64,0,15.96,0
		c7.7,0,15.4,0,23.1,0c0.72,0.01,1.46-0.03,2.19-0.23c1.33-0.38,2.27-1.58,2.23-2.86c-0.04-1.41-1.11-2.58-2.53-2.78
		c-0.5-0.07-1.05-0.1-1.67-0.08c-0.52,0.02-0.88-0.09-1.11-0.32c-0.23-0.23-0.33-0.57-0.33-1.05c0.02-1.42,0.02-2.86,0.02-4.25
		c0-0.02,0-0.05,0-0.07l0-3.57h1.28l0.01,3.16v0.95C48.13,40.57,48.88,41.33,50.08,41.33z M50.08,31.77c0.38,0,0.67,0.09,0.85,0.28
		c0.17,0.18,0.24,0.44,0.22,0.77c0.01,0.32-0.07,0.57-0.23,0.74c-0.18,0.18-0.45,0.27-0.84,0.27c-0.02,0-0.03,0-0.05,0
		c-0.33-0.01-0.58-0.1-0.74-0.27c-0.18-0.19-0.26-0.48-0.24-0.88C49.07,32.08,49.42,31.78,50.08,31.77z M49.32,35.17
		c0.19-0.18,0.47-0.26,0.81-0.23c0.32-0.03,0.58,0.06,0.76,0.23c0.19,0.18,0.28,0.47,0.27,0.86c-0.01,0.61-0.34,0.93-0.98,0.96
		c-0.03,0-0.06,0-0.09,0c-0.35,0-0.6-0.08-0.78-0.25s-0.27-0.42-0.27-0.75C49.04,35.63,49.13,35.35,49.32,35.17z M31.91,10.67V8.35
		c0-0.4,0.33-0.73,0.73-0.73h0.98c0.4,0,0.73,0.33,0.73,0.73v2.33c0,0.4-0.33,0.73-0.73,0.73h-0.98
		C32.24,11.4,31.91,11.08,31.91,10.67z M30.21,43.19c0,0,0.49-2.23,0.86-3.62c0.21-0.8,0.43-1.62,0.62-2.43
		c0.69-3.02-0.12-5.52-2.28-7.04c-1.05-0.74-2.33-1.12-3.81-1.13l-0.25,0c-3.38-0.02-6.88-0.05-10.31,0.01
		c-3.44,0.05-5.63,2.27-5.72,5.79c0,0.11,0,0.21,0,0.32c0,0.15,0,0.3,0,0.44c-0.07,1.44-0.71,2.23-1.79,2.23c-0.02,0-0.04,0-0.06,0
		c-1.65-0.04-1.8-1.55-1.85-2.04c-0.03-0.34-0.03-0.68-0.03-1.01l0-0.14c0-5.22,0-10.44,0-15.66l0-0.25c0-0.55-0.01-1.12,0.19-1.67
		c0.24-0.64,0.66-1.09,1.19-1.24c0.52-0.16,1.1-0.02,1.62,0.37c0.19,0.14,0.34,0.28,0.44,0.43c2.62,3.68,6.25,4.69,11.77,3.3
		c1.33-0.34,2.67-0.74,3.97-1.13c1.6-0.48,3.25-0.98,4.91-1.35c6.39-1.46,12.73,1.95,15.07,8.09c0.49,1.29,0.75,2.61,0.76,3.92
		c0.03,2.28,0.02,4.59,0.02,6.83c0,2.09,0,4.25,0.02,6.38c0.01,0.7-0.11,1.12-0.39,1.4c-0.26,0.26-0.64,0.38-1.21,0.38
		c-0.02,0-0.03,0-0.05,0c-2.95-0.03-5.95-0.03-8.84-0.03c-1.26,0-2.53,0-3.79,0c-0.3,0-1.33,0.01-1.33,0.01L30.21,43.19z
		 M48.14,45.46c1.29,0,2.13,0.23,2.58,0.7c0.28,0.3,0.41,0.7,0.39,1.2c-0.07,1.2-0.97,1.73-2.94,1.74
		c-4.87,0.01-9.74,0.01-14.61,0.01l-5.38,0c-3.97,0-7.95,0-11.93,0c-2.31,0-4.63,0-6.94,0H9.23c-0.6,0-1.22,0-1.83-0.05
		c-1.17-0.09-1.84-0.79-1.79-1.88c0.04-1,0.71-1.63,1.77-1.7c0.37-0.02,0.73-0.01,1.09-0.02l5.71,0
		C25.5,45.46,36.82,45.46,48.14,45.46z"/>
</g>
</svg>
