<?xml version="1.0" encoding="utf-8"?>
<!-- Generator: Adobe Illustrator 23.0.1, SVG Export Plug-In . SVG Version: 6.00 Build 0)  -->
<svg version="1.1" id="Слой_1" xmlns="http://www.w3.org/2000/svg" xmlns:xlink="http://www.w3.org/1999/xlink" x="0px" y="0px"
	 viewBox="0 0 400 117" style="enable-background:new 0 0 400 117;" xml:space="preserve">
<g>
	<polygon points="236.16,39.62 236.16,32.69 218.24,32.69 218.24,12.38 229.15,12.38 229.15,23.83 236.08,23.83 236.08,5.45 
		234.44,5.45 229.15,5.45 218.24,5.45 216.06,5.45 211.31,5.45 211.31,32.69 203.43,32.69 203.43,0 196.5,0 196.5,32.69 
		188.61,32.69 188.61,5.45 183.86,5.45 181.68,5.45 170.78,5.45 165.48,5.45 163.84,5.45 163.84,23.83 170.78,23.83 170.78,12.38 
		181.68,12.38 181.68,32.69 163.84,32.69 163.84,39.62 181.68,39.62 181.68,59.93 170.78,59.93 170.78,48.47 163.84,48.47 
		163.84,66.86 166.42,66.86 170.78,66.86 181.68,66.86 184.8,66.86 188.61,66.86 188.61,39.62 196.5,39.62 196.5,72.31 
		203.43,72.31 203.43,39.62 211.31,39.62 211.31,66.86 215.12,66.86 218.24,66.86 229.15,66.86 233.51,66.86 236.08,66.86 
		236.08,48.47 229.15,48.47 229.15,59.93 218.24,59.93 218.24,39.62 	"/>
	<g>
		<path d="M107.46,111.79h-5.37l-0.63,5.21h-3.02l3.1-27.21h6.43L111.1,117h-3.06L107.46,111.79z M107.14,109.04l-1.88-16.23h-1.02
			l-1.84,16.23H107.14z"/>
		<path d="M126.31,89.79v3.02h-4.98V117h-3.02V92.81h-4.98v-3.02H126.31z"/>
		<path d="M139.61,89.79v3.02h-6.04v5.61h4.55v3.06h-4.55v12.51h6.04V117h-9.06V89.79H139.61z"/>
		<path d="M154.82,89.79V117h-3.02V92.81h-3.45l-0.9,20.43c-0.05,1.26-0.32,2.2-0.8,2.82c-0.48,0.63-1.35,0.94-2.61,0.94h-1.65
			v-3.02h1.25c0.31,0,0.52-0.04,0.61-0.14c0.09-0.09,0.15-0.29,0.18-0.61l1.02-23.44H154.82z"/>
		<path d="M170.38,112.8c0,0.76-0.11,1.41-0.33,1.94c-0.22,0.54-0.52,0.97-0.9,1.3c-0.38,0.33-0.82,0.57-1.33,0.72
			c-0.51,0.16-1.05,0.24-1.63,0.24h-5.88V89.79h3.02v8.62h2.86c0.76,0,1.41,0.11,1.94,0.34c0.54,0.22,0.97,0.52,1.29,0.9
			c0.33,0.38,0.57,0.82,0.73,1.33c0.16,0.51,0.23,1.05,0.23,1.63V112.8z M167.36,102.61c0-0.34-0.09-0.62-0.26-0.84
			c-0.17-0.22-0.48-0.33-0.92-0.33h-2.86v12.55h2.86c0.34,0,0.62-0.09,0.84-0.26c0.22-0.17,0.33-0.48,0.33-0.92V102.61z"/>
		<path d="M184.46,89.79v3.02h-6.04v5.61h4.55v3.06h-4.55v12.51h6.04V117h-9.06V89.79H184.46z"/>
		<path d="M199.55,99.98l-3.41-10.19h3.18l2.98,8.9h2.31v-8.9h3.02v8.9h2.27l2.98-8.9h3.21l-3.41,10.19l3.65,17.02h-3.1l-3.37-15.76
			h-2.23V117h-3.02v-15.76h-2.23L199,117h-3.1L199.55,99.98z"/>
		<path d="M238.87,89.79V117h-3.02v-11.76l0.39-12.74h-1.1l-2.94,17.92h-5.02l-2.94-17.92h-1.1l0.39,12.74V117h-3.02V89.79h6.15
			l2.75,17.96h0.55l2.74-17.96H238.87z"/>
		<path d="M252.79,111.79h-5.37l-0.63,5.21h-3.02l3.1-27.21h6.43l3.14,27.21h-3.06L252.79,111.79z M252.48,109.04l-1.88-16.23h-1.02
			l-1.84,16.23H252.48z"/>
		<path d="M270.08,89.79v3.02h-6.04v5.61h4.55v3.06h-4.55v12.51h6.04V117h-9.06V89.79H270.08z"/>
		<path d="M280.74,89.79c0.76,0,1.4,0.11,1.94,0.34c0.54,0.22,0.97,0.52,1.29,0.9c0.33,0.38,0.57,0.82,0.73,1.33
			c0.16,0.51,0.23,1.05,0.23,1.63v1.92c0,1.23-0.22,2.15-0.65,2.76c-0.43,0.62-1,1.04-1.71,1.28c0.71,0.26,1.27,0.7,1.71,1.31
			c0.43,0.62,0.65,1.54,0.65,2.77v8.78c0,0.76-0.11,1.41-0.33,1.94c-0.22,0.54-0.52,0.97-0.9,1.3c-0.38,0.33-0.82,0.57-1.33,0.72
			c-0.51,0.16-1.05,0.24-1.63,0.24h-5.84V89.79H280.74z M281.92,93.99c0-0.31-0.08-0.59-0.26-0.82c-0.17-0.24-0.48-0.35-0.92-0.35
			h-2.82v5.65h2.04c0.55,0,1.01-0.19,1.39-0.57c0.38-0.38,0.57-0.91,0.57-1.59V93.99z M281.92,103.63c0-0.68-0.19-1.21-0.57-1.59
			c-0.38-0.38-0.84-0.57-1.39-0.57h-2.04v12.51h2.82c0.34,0,0.62-0.09,0.84-0.26c0.22-0.17,0.33-0.48,0.33-0.92V103.63z"/>
		<path d="M297.91,111.79h-5.37l-0.63,5.21h-3.02l3.1-27.21h6.43l3.14,27.21h-3.06L297.91,111.79z M297.6,109.04l-1.88-16.23h-1.02
			l-1.84,16.23H297.6z"/>
	</g>
</g>
</svg>
